<?xml version="1.0" standalone="no"?>
<!DOCTYPE svg PUBLIC "-//W3C//DTD SVG 20010904//EN"
 "http://www.w3.org/TR/2001/REC-SVG-20010904/DTD/svg10.dtd">
<svg version="1.0" xmlns="http://www.w3.org/2000/svg"
 width="400.000000pt" height="400.000000pt" viewBox="0 0 400.000000 400.000000"
 preserveAspectRatio="xMidYMid meet">
<metadata>
Created by potrace 1.14, written by Peter Selinger 2001-2017
</metadata>
<g transform="translate(0.000000,400.000000) scale(0.100000,-0.100000)"
fill="#000000" stroke="none">
<path d="M1425 3590 c-55 -9 -98 -33 -142 -81 -21 -23 -43 -47 -49 -53 -6 -6
-18 -23 -28 -37 -15 -25 -16 -28 -1 -43 9 -9 17 -16 18 -16 1 0 17 -4 35 -9
20 -6 30 -6 27 0 -4 5 -2 9 3 9 5 0 15 14 22 30 7 17 17 30 22 30 5 0 7 4 4 9
-8 12 70 79 111 97 50 22 105 18 144 -11 117 -85 155 -92 473 -88 196 2 231 4
247 19 14 13 16 20 6 35 -17 27 -51 37 -142 44 -111 8 -180 14 -245 20 -30 2
-100 7 -155 10 -55 3 -112 8 -126 10 -14 3 -42 7 -62 10 -20 3 -53 7 -73 10
-20 3 -39 7 -43 8 -3 2 -24 0 -46 -3z"/>
<path d="M1482 3376 c-30 -35 -34 -64 -8 -67 53 -6 138 -19 156 -24 21 -6 67
-13 125 -20 28 -3 61 -7 75 -10 14 -2 49 -7 79 -10 30 -4 63 -8 73 -10 11 -2
47 -7 81 -10 34 -3 76 -8 92 -10 17 -2 55 -7 85 -10 30 -3 75 -7 100 -10 25
-3 74 -7 110 -10 36 -3 90 -7 120 -10 264 -23 544 -21 575 5 7 5 15 7 18 4 16
-16 -4 38 -20 55 -21 23 -155 88 -195 95 -15 3 -33 8 -39 11 -6 4 -23 9 -37
10 -15 2 -52 7 -82 11 -68 9 -122 8 -270 -1 -206 -14 -649 -8 -770 10 -14 2
-50 7 -80 10 -30 4 -64 9 -75 11 -11 2 -34 7 -51 10 -26 5 -35 0 -62 -30z"/>
<path d="M980 3239 c-12 -13 -33 -40 -46 -59 -12 -19 -50 -72 -83 -118 -87
-119 -87 -119 -54 -135 39 -20 136 -53 213 -72 73 -19 77 -20 140 -30 25 -3
56 -8 70 -10 14 -3 60 -7 103 -10 68 -4 84 -2 120 18 22 12 47 27 54 34 7 6
34 19 60 29 27 10 53 21 58 25 10 7 138 46 179 55 81 17 178 34 216 38 180 19
325 22 610 12 102 -3 271 -9 375 -12 202 -7 293 -6 307 2 16 10 8 41 -14 51
-13 6 -61 11 -108 13 -47 1 -110 3 -140 5 -30 1 -116 6 -190 9 -74 4 -155 9
-180 12 -25 2 -88 7 -140 10 -52 3 -111 7 -130 9 -19 2 -71 6 -115 9 -44 3
-100 8 -125 11 -25 3 -74 7 -110 10 -36 3 -85 7 -110 10 -25 3 -67 7 -95 10
-27 2 -72 7 -100 10 -27 2 -77 7 -110 10 -33 3 -78 8 -100 11 -22 3 -56 7 -75
9 -77 8 -146 16 -160 20 -8 3 -42 7 -76 10 -33 3 -71 8 -83 10 -13 2 -49 7
-81 11 -52 6 -59 4 -80 -17z"/>
<path d="M2268 2916 c-1 -2 -37 -6 -78 -10 -41 -3 -86 -8 -100 -10 -14 -2 -47
-7 -75 -11 -49 -7 -195 -41 -225 -52 -8 -4 -17 -7 -20 -7 -22 -4 -108 -42
-118 -52 -19 -20 16 -33 128 -49 158 -23 384 -63 511 -90 44 -9 205 -68 251
-91 124 -63 289 -205 320 -275 7 -16 16 -29 19 -29 9 0 85 -158 108 -225 25
-74 57 -212 66 -285 4 -30 9 -66 11 -80 9 -69 17 -230 16 -352 -1 -151 2 -159
60 -162 69 -4 188 39 246 88 39 34 121 116 115 116 -3 0 -1 6 5 13 20 24 59
103 72 142 7 22 16 45 21 51 5 6 7 13 5 15 -3 2 1 33 9 67 12 62 14 280 1 331
-20 86 -23 247 -11 656 5 180 3 235 -7 253 l-13 24 -310 3 c-170 2 -346 6
-390 9 -91 6 -611 16 -617 12z"/>
<path d="M560 2846 c-13 -17 -39 -103 -45 -156 -3 -19 -8 -46 -11 -60 -8 -33
-14 -64 -18 -97 -2 -16 -8 -55 -14 -88 -6 -33 -13 -73 -15 -90 -4 -27 -19
-112 -31 -175 -14 -74 -27 -132 -45 -194 -19 -68 -22 -205 -7 -276 3 -14 9
-38 12 -55 27 -128 152 -274 294 -343 147 -73 200 -81 460 -76 124 2 250 6
280 8 51 4 179 12 325 21 299 19 603 23 792 12 119 -7 160 -12 308 -38 69 -11
111 -15 113 -9 2 6 8 7 13 4 6 -3 8 70 4 198 -6 209 -8 234 -20 328 -4 30 -8
64 -10 75 -1 11 -6 36 -10 55 -5 19 -9 44 -11 55 -1 11 -3 20 -4 20 -1 0 -3 7
-5 15 -13 63 -79 200 -125 259 -56 73 -154 152 -240 193 -89 43 -155 71 -161
70 -4 -1 -40 9 -80 22 -41 13 -92 27 -114 32 -22 4 -44 8 -50 10 -38 9 -183
34 -230 39 -16 2 -50 6 -75 10 -25 3 -65 8 -89 10 -42 4 -95 10 -191 21 -25 2
-85 14 -135 25 -136 31 -247 56 -410 94 -36 8 -95 22 -132 30 -38 9 -84 20
-103 25 -55 15 -177 40 -193 40 -8 0 -20 -6 -27 -14z m389 -342 c7 -2 84 -20
169 -39 167 -38 192 -49 222 -98 18 -29 20 -52 20 -267 0 -218 -2 -237 -20
-268 -26 -42 -65 -58 -165 -67 -44 -4 -100 -9 -125 -11 -191 -19 -291 6 -352
90 -28 38 -30 46 -25 101 4 33 16 101 28 150 11 50 23 101 26 115 2 14 10 53
18 88 8 34 17 75 20 92 9 50 22 74 55 102 26 21 39 25 73 22 23 -3 48 -7 56
-10z m831 -149 c8 -1 40 -6 70 -10 101 -13 182 -44 220 -82 l35 -36 3 -167 c4
-194 -4 -228 -67 -259 -44 -22 -177 -20 -306 5 -16 3 -49 7 -73 8 -33 2 -51
10 -77 35 l-35 33 -1 101 c0 56 -2 147 -4 202 -3 115 5 141 60 173 17 11 107
9 175 -3z m684 -152 c49 -32 90 -73 122 -125 30 -47 75 -168 79 -213 3 -34
-23 -85 -42 -85 -7 0 -13 -4 -13 -10 0 -10 -64 -7 -175 9 -38 6 -75 11 -81 11
-7 0 -29 17 -49 37 l-37 37 6 111 c10 168 15 198 39 224 44 47 83 48 151 4z"/>
<path d="M1904 1116 c-7 -11 -11 -22 -9 -26 21 -34 27 -379 7 -403 -7 -7 -10
-16 -7 -19 4 -4 -23 -94 -42 -138 -7 -18 -9 -26 -18 -66 -7 -34 0 -39 84 -58
29 -6 56 24 89 101 59 140 80 319 57 513 -12 104 -14 108 -86 112 -52 2 -64 0
-75 -16z"/>
<path d="M2135 1132 c-11 -11 -3 -19 60 -60 36 -24 65 -48 65 -53 0 -6 4 -8 9
-4 5 3 19 -7 30 -21 12 -15 21 -24 21 -20 0 6 78 -52 100 -74 8 -8 40 -27 85
-51 22 -12 42 -24 45 -28 16 -20 210 -19 210 2 0 4 7 7 15 7 9 0 42 14 75 30
33 17 60 28 60 25 0 -3 9 4 21 16 32 32 32 57 1 76 -15 10 -29 20 -32 23 -9
10 -121 60 -147 66 -6 1 -27 7 -45 13 -46 14 -193 42 -253 48 -78 7 -314 10
-320 5z"/>
<path d="M1607 1124 c-1 -2 -41 -5 -87 -8 -47 -3 -101 -7 -120 -10 -19 -3 -60
-8 -90 -11 -81 -8 -153 -17 -170 -21 -8 -1 -27 -3 -41 -3 -53 -2 -38 -59 30
-116 13 -11 34 -30 47 -42 13 -12 24 -20 24 -18 0 2 28 -11 63 -29 34 -18 64
-33 67 -33 3 0 30 -6 60 -13 96 -23 227 -12 303 27 15 7 27 11 27 8 0 -3 18
14 39 36 22 24 44 60 50 83 13 50 20 137 10 130 -4 -2 -9 2 -11 8 -3 9 -33 13
-102 14 -53 0 -98 -1 -99 -2z"/>
</g>
</svg>
